<svg width="36" height="36" viewBox="0 0 36 36" fill="none" xmlns="http://www.w3.org/2000/svg">
<path d="M2.1001 10.5116C2.1001 11.34 2.77167 12.0116 3.6001 12.0116C4.42852 12.0116 5.1001 11.34 5.1001 10.5116H2.1001ZM10.5121 5.09961C11.3405 5.09961 12.0121 4.42804 12.0121 3.59961C12.0121 2.77118 11.3405 2.09961 10.5121 2.09961V5.09961ZM25.4881 2.09961C24.6597 2.09961 23.9881 2.77118 23.9881 3.59961C23.9881 4.42804 24.6597 5.09961 25.4881 5.09961V2.09961ZM26.6401 3.59961V2.09961V3.59961ZM32.4001 9.35961H30.9001H32.4001ZM30.9001 10.5116C30.9001 11.34 31.5717 12.0116 32.4001 12.0116C33.2285 12.0116 33.9001 11.34 33.9001 10.5116H30.9001ZM9.84476 29.4283C10.4305 28.8425 10.4305 27.8927 9.84476 27.3069C9.25897 26.7212 8.30922 26.7212 7.72344 27.3069L9.84476 29.4283ZM3.69144 31.3389C3.10565 31.9247 3.10565 32.8745 3.69144 33.4603C4.27722 34.0461 5.22697 34.0461 5.81276 33.4603L3.69144 31.3389ZM30.1874 33.4603C30.7732 34.0461 31.723 34.0461 32.3088 33.4603C32.8945 32.8745 32.8945 31.9247 32.3088 31.3389L30.1874 33.4603ZM28.2768 27.3069C27.691 26.7212 26.7412 26.7212 26.1554 27.3069C25.5696 27.8927 25.5696 28.8425 26.1554 29.4283L28.2768 27.3069ZM14.5608 17.8389C13.975 17.2532 13.0252 17.2532 12.4394 17.8389C11.8536 18.4247 11.8536 19.3745 12.4394 19.9603L14.5608 17.8389ZM16.2001 21.5996L15.1394 22.6603C15.7252 23.2461 16.675 23.2461 17.2608 22.6603L16.2001 21.5996ZM23.5608 16.3603C24.1465 15.7745 24.1465 14.8247 23.5608 14.2389C22.975 13.6532 22.0252 13.6532 21.4394 14.2389L23.5608 16.3603ZM5.1001 10.5116V9.35961H2.1001V10.5116H5.1001ZM9.3601 5.09961H10.5121V2.09961H9.3601V5.09961ZM5.1001 9.35961C5.1001 7.00688 7.00736 5.09961 9.3601 5.09961V2.09961C5.35051 2.09961 2.1001 5.35002 2.1001 9.35961H5.1001ZM25.4881 5.09961H26.6401V2.09961H25.4881V5.09961ZM30.9001 9.35961V10.5116H33.9001V9.35961H30.9001ZM26.6401 5.09961C28.9928 5.09961 30.9001 7.00688 30.9001 9.35961H33.9001C33.9001 5.35002 30.6497 2.09961 26.6401 2.09961V5.09961ZM7.72344 27.3069L3.69144 31.3389L5.81276 33.4603L9.84476 29.4283L7.72344 27.3069ZM32.3088 31.3389L28.2768 27.3069L26.1554 29.4283L30.1874 33.4603L32.3088 31.3389ZM29.1721 19.1516C29.1721 25.3217 24.1702 30.3236 18.0001 30.3236V33.3236C25.8271 33.3236 32.1721 26.9786 32.1721 19.1516H29.1721ZM18.0001 30.3236C11.83 30.3236 6.8281 25.3217 6.8281 19.1516H3.8281C3.8281 26.9786 10.1731 33.3236 18.0001 33.3236V30.3236ZM6.8281 19.1516C6.8281 12.9815 11.83 7.97961 18.0001 7.97961V4.97961C10.1731 4.97961 3.8281 11.3246 3.8281 19.1516H6.8281ZM18.0001 7.97961C24.1702 7.97961 29.1721 12.9815 29.1721 19.1516H32.1721C32.1721 11.3246 25.8271 4.97961 18.0001 4.97961V7.97961ZM12.4394 19.9603L15.1394 22.6603L17.2608 20.5389L14.5608 17.8389L12.4394 19.9603ZM17.2608 22.6603L23.5608 16.3603L21.4394 14.2389L15.1394 20.5389L17.2608 22.6603Z" fill="url(#paint0_linear_5839_2067)"/>
<defs>
<linearGradient id="paint0_linear_5839_2067" x1="3.6001" y1="4.08656" x2="37.8237" y2="15.0464" gradientUnits="userSpaceOnUse">
<stop offset="0.307292" stop-color="#027DFF" stop-opacity="0.9"/>
<stop offset="0.494792" stop-color="#8C01E8" stop-opacity="0.9"/>
<stop offset="0.958333" stop-color="#6275E9"/>
</linearGradient>
</defs>
</svg>
