<svg width="36" height="36" viewBox="0 0 36 36" fill="none" xmlns="http://www.w3.org/2000/svg">
<g id="currency-coin-dollar">
<path id="Icon" d="M20.8126 14.9735C21.0835 15.7563 21.9377 16.1714 22.7206 15.9005C23.5035 15.6296 23.9185 14.7753 23.6476 13.9924L20.8126 14.9735ZM19.8001 12.6496L19.866 11.1511C19.844 11.1501 19.8221 11.1496 19.8001 11.1496V12.6496ZM16.2001 18.1496V19.6496V18.1496ZM19.8001 23.6496V25.1496V23.6496ZM16.2001 23.6496L16.1342 25.1482C16.1561 25.1491 16.1781 25.1496 16.2001 25.1496L16.2001 23.6496ZM15.1876 21.3258C14.9167 20.5429 14.0625 20.1278 13.2796 20.3987C12.4967 20.6696 12.0817 21.5239 12.3526 22.3068L15.1876 21.3258ZM19.5001 9.89961C19.5001 9.07118 18.8285 8.39961 18.0001 8.39961C17.1717 8.39961 16.5001 9.07118 16.5001 9.89961H19.5001ZM16.5001 12.6496C16.5001 13.478 17.1717 14.1496 18.0001 14.1496C18.8285 14.1496 19.5001 13.478 19.5001 12.6496H16.5001ZM19.5001 23.6496C19.5001 22.8212 18.8285 22.1496 18.0001 22.1496C17.1717 22.1496 16.5001 22.8212 16.5001 23.6496H19.5001ZM16.5001 26.3996C16.5001 27.228 17.1717 27.8996 18.0001 27.8996C18.8285 27.8996 19.5001 27.228 19.5001 26.3996H16.5001ZM23.6476 13.9924C23.3721 13.1962 22.8674 12.4978 22.1941 11.9898L20.3873 14.3847C20.5802 14.5302 20.7298 14.7343 20.8126 14.9735L23.6476 13.9924ZM22.1941 11.9898C21.5205 11.4816 20.7098 11.1882 19.866 11.1511L19.7342 14.1482C19.9673 14.1584 20.1948 14.2395 20.3873 14.3847L22.1941 11.9898ZM19.8001 11.1496H16.2001V14.1496H19.8001V11.1496ZM16.2001 11.1496C15.0772 11.1496 14.006 11.6042 13.2206 12.4042L15.3613 14.5059C15.5885 14.2745 15.8908 14.1496 16.2001 14.1496V11.1496ZM13.2206 12.4042C12.436 13.2032 12.0001 14.2812 12.0001 15.3996H15.0001C15.0001 15.0593 15.1331 14.7383 15.3613 14.5059L13.2206 12.4042ZM12.0001 15.3996C12.0001 16.518 12.436 17.596 13.2206 18.395L15.3613 16.2933C15.1331 16.0609 15.0001 15.7399 15.0001 15.3996H12.0001ZM13.2206 18.395C14.006 19.195 15.0772 19.6496 16.2001 19.6496L16.2001 16.6496C15.8908 16.6496 15.5885 16.5247 15.3613 16.2933L13.2206 18.395ZM16.2001 19.6496H19.8001V16.6496H16.2001V19.6496ZM19.8001 19.6496C20.1094 19.6496 20.4117 19.7745 20.6389 20.0059L22.7796 17.9042C21.9942 17.1042 20.923 16.6496 19.8001 16.6496V19.6496ZM20.6389 20.0059C20.8671 20.2383 21.0001 20.5593 21.0001 20.8996H24.0001C24.0001 19.7812 23.5642 18.7032 22.7796 17.9042L20.6389 20.0059ZM21.0001 20.8996C21.0001 21.2399 20.8671 21.5609 20.6389 21.7933L22.7796 23.895C23.5642 23.096 24.0001 22.018 24.0001 20.8996H21.0001ZM20.6389 21.7933C20.4117 22.0247 20.1094 22.1496 19.8001 22.1496V25.1496C20.923 25.1496 21.9942 24.695 22.7796 23.895L20.6389 21.7933ZM19.8001 22.1496H16.2001V25.1496H19.8001V22.1496ZM16.266 22.1511C16.0329 22.1408 15.8054 22.0597 15.6129 21.9145L13.806 24.3094C14.4797 24.8176 15.2904 25.111 16.1342 25.1482L16.266 22.1511ZM15.6129 21.9145C15.42 21.769 15.2704 21.565 15.1876 21.3258L12.3526 22.3068C12.6281 23.103 13.1327 23.8014 13.806 24.3094L15.6129 21.9145ZM16.5001 9.89961V12.6496H19.5001V9.89961H16.5001ZM16.5001 23.6496V26.3996H19.5001V23.6496H16.5001ZM30.9001 17.9996C30.9001 25.1241 25.1246 30.8996 18.0001 30.8996V33.8996C26.7814 33.8996 33.9001 26.7809 33.9001 17.9996H30.9001ZM18.0001 30.8996C10.8756 30.8996 5.1001 25.1241 5.1001 17.9996H2.1001C2.1001 26.7809 9.21877 33.8996 18.0001 33.8996V30.8996ZM5.1001 17.9996C5.1001 10.8751 10.8756 5.09961 18.0001 5.09961V2.09961C9.21877 2.09961 2.1001 9.21828 2.1001 17.9996H5.1001ZM18.0001 5.09961C25.1246 5.09961 30.9001 10.8751 30.9001 17.9996H33.9001C33.9001 9.21828 26.7814 2.09961 18.0001 2.09961V5.09961Z" fill="url(#paint0_linear_5839_2106)"/>
</g>
<defs>
<linearGradient id="paint0_linear_5839_2106" x1="3.6001" y1="4.08656" x2="37.8237" y2="15.0464" gradientUnits="userSpaceOnUse">
<stop offset="0.307292" stop-color="#027DFF" stop-opacity="0.9"/>
<stop offset="0.494792" stop-color="#8C01E8" stop-opacity="0.9"/>
<stop offset="0.958333" stop-color="#6275E9"/>
</linearGradient>
</defs>
</svg>
