<svg width="144" height="24" viewBox="0 0 144 24" fill="none" xmlns="http://www.w3.org/2000/svg">
<path d="M24 2.84098C23.1177 3.32357 22.1682 3.6491 21.1719 3.79477C22.1891 3.04541 22.9691 1.85842 23.3369 0.442424C22.3855 1.13723 21.3322 1.6414 20.2102 1.91357C19.3123 0.736174 18.0325 0 16.6163 0C13.8973 0 11.6928 2.71269 11.6928 6.05905C11.6928 6.53325 11.7362 6.99545 11.8205 7.43968C7.72815 7.18669 4.09963 4.77494 1.67103 1.10906C1.24718 2.0035 1.00457 3.04421 1.00457 4.15567C1.00457 6.25748 1.8737 8.1123 3.19493 9.19858C2.38816 9.16681 1.62865 8.89404 0.964618 8.44023C0.964131 8.4654 0.964131 8.49118 0.964131 8.51696C0.964131 11.4521 2.66147 13.9004 4.9142 14.4579C4.50107 14.5958 4.06601 14.6701 3.61683 14.6701C3.29919 14.6701 2.9908 14.6324 2.69021 14.561C3.31722 16.968 5.13538 18.7203 7.28969 18.7688C5.60453 20.3941 3.48188 21.3628 1.17459 21.3628C0.777541 21.3628 0.38536 21.3341 0 21.2777C2.17965 22.9977 4.76755 24 7.5479 24C16.6051 24 21.5573 14.7678 21.5573 6.76105C21.5573 6.49848 21.5529 6.2365 21.5436 5.97632C22.5053 5.12384 23.3404 4.05615 24 2.84098Z" fill="#C4C4C4"/>
<path d="M72.0002 5.75781C68.6131 5.75781 65.8066 8.51588 65.8066 11.9514C65.8066 15.3868 68.5647 18.1449 72.0002 18.1449C75.4357 18.1449 78.1937 15.3385 78.1937 11.9514C78.1937 8.56426 75.3873 5.75781 72.0002 5.75781ZM72.0002 15.9191C69.8228 15.9191 68.0324 14.1288 68.0324 11.9514C68.0324 9.77394 69.8228 7.98362 72.0002 7.98362C74.1776 7.98362 75.9679 9.77394 75.9679 11.9514C75.9679 14.1288 74.1776 15.9191 72.0002 15.9191Z" fill="#C4C4C4"/>
<path d="M78.4355 7.01641C79.2104 7.01641 79.8387 6.38817 79.8387 5.61319C79.8387 4.83821 79.2104 4.20996 78.4355 4.20996C77.6605 4.20996 77.0322 4.83821 77.0322 5.61319C77.0322 6.38817 77.6605 7.01641 78.4355 7.01641Z" fill="#C4C4C4"/>
<path d="M82.0645 1.98387C80.8065 0.677419 79.0161 0 76.9839 0H67.0161C62.8065 0 60 2.80645 60 7.01613V16.9355C60 19.0161 60.6774 20.8065 62.0323 22.1129C63.3387 23.371 65.0806 24 67.0645 24H76.9355C79.0161 24 80.7581 23.3226 82.0161 22.1129C83.3226 20.8548 84 19.0645 84 16.9839V7.01613C84 4.98387 83.3226 3.24194 82.0645 1.98387ZM81.871 16.9839C81.871 18.4839 81.3387 19.6935 80.4677 20.5161C79.5968 21.3387 78.3871 21.7742 76.9355 21.7742H67.0645C65.6129 21.7742 64.4032 21.3387 63.5323 20.5161C62.6613 19.6452 62.2258 18.4355 62.2258 16.9355V7.01613C62.2258 5.56452 62.6613 4.35484 63.5323 3.48387C64.3548 2.66129 65.6129 2.22581 67.0645 2.22581H77.0323C78.4839 2.22581 79.6935 2.66129 80.5645 3.53226C81.3871 4.40323 81.871 5.6129 81.871 7.01613V16.9839Z" fill="#C4C4C4"/>
<path d="M120.304 7.80614H125.448V24H120.304V7.80614ZM122.911 0C121.15 0 120 1.20914 120 2.79617C120 4.35055 121.116 5.59484 122.843 5.59484H122.876C124.67 5.59484 125.787 4.3505 125.787 2.79617C125.754 1.20914 124.67 0 122.911 0ZM138.077 7.42573C135.346 7.42573 134.123 8.99686 133.441 10.0987V7.80614H128.296C128.364 9.32532 128.296 24 128.296 24H133.441V14.9562C133.441 14.4718 133.474 13.9893 133.61 13.6423C133.982 12.6753 134.829 11.674 136.249 11.674C138.112 11.674 138.856 13.1597 138.856 15.3357V23.9999H144V14.7141C144 9.7401 141.463 7.42573 138.077 7.42573Z" fill="#C4C4C4"/>
</svg>
