<svg width="24" height="24" viewBox="0 0 24 24" fill="none" xmlns="http://www.w3.org/2000/svg">
<g id="message-chat-01">
<path id="Vector" d="M4.53275 10.9332C4.53275 6.22041 8.35325 2.3999 13.0661 2.3999C17.7789 2.3999 21.5994 6.22041 21.5994 10.9332C21.5994 12.1599 21.3406 13.3262 20.8745 14.3803L21.601 19.4658L17.2429 18.3762C16.0083 19.0705 14.5834 19.4666 13.0661 19.4666M2.40042 16.2666C2.40042 17.0332 2.56218 17.7621 2.85343 18.421L2.39941 21.5994L5.123 20.9184C5.89457 21.3524 6.78501 21.5999 7.73325 21.5999C10.6785 21.5999 13.0661 19.2121 13.0661 16.2666C13.0661 13.321 10.6785 10.9332 7.73325 10.9332C4.78801 10.9332 2.40042 13.321 2.40042 16.2666Z" stroke="#121212" stroke-width="2" stroke-linecap="round" stroke-linejoin="round"/>
</g>
</svg>
