<svg width="36" height="36" viewBox="0 0 36 36" fill="none" xmlns="http://www.w3.org/2000/svg">
<g id="users-profiles-02">
<path id="Icon" d="M28.8001 20.5283C30.7011 21.9487 32.4001 25.5248 32.4001 27.7282C32.4001 28.4147 31.8993 28.9712 31.2814 28.9712H30.6001M23.4001 14.7065C24.6299 13.9951 25.4572 12.6655 25.4572 11.1426C25.4572 9.61974 24.6299 8.29012 23.4001 7.57874M4.71875 28.9712H24.4243C25.0421 28.9712 25.543 28.4147 25.543 27.7282C25.543 23.4133 21.9381 19.9154 14.5715 19.9154C7.205 19.9154 3.6001 23.4133 3.6001 27.7282C3.6001 28.4147 4.10094 28.9712 4.71875 28.9712ZM18.6858 11.1426C18.6858 13.4149 16.8438 15.2569 14.5715 15.2569C12.2993 15.2569 10.4572 13.4149 10.4572 11.1426C10.4572 8.87035 12.2993 7.02832 14.5715 7.02832C16.8438 7.02832 18.6858 8.87035 18.6858 11.1426Z" stroke="url(#paint0_linear_5839_2079)" stroke-width="3" stroke-linecap="round"/>
</g>
<defs>
<linearGradient id="paint0_linear_5839_2079" x1="3.6001" y1="7.39933" x2="35.6681" y2="20.8781" gradientUnits="userSpaceOnUse">
<stop offset="0.307292" stop-color="#027DFF" stop-opacity="0.9"/>
<stop offset="0.494792" stop-color="#8C01E8" stop-opacity="0.9"/>
<stop offset="0.958333" stop-color="#6275E9"/>
</linearGradient>
</defs>
</svg>
